<svg width="780" height="140" viewBox="0 0 780 140" fill="none" xmlns="http://www.w3.org/2000/svg">
<path fill-rule="evenodd" clip-rule="evenodd" d="M123.753 13.5796L175.664 65.4897H128.201L119.306 74.3849H213.803L222.699 65.4897H188.243L186.651 63.8979L130.043 7.2898L123.753 1L117.464 7.2898L60.8555 63.8979L54.5657 70.1877L60.8555 76.4775L117.464 133.086L123.753 139.375L130.043 133.086L170.954 92.1744H158.375L123.753 126.796L67.1453 70.1877L123.753 13.5796ZM8.89512 65.4897L0 74.3849H37.8045L46.6996 65.4897H8.89512Z" fill="white"/>
<path d="M685.756 105.178L685.777 105.133C686.001 104.644 686.125 104.095 686.125 103.45V33.6309H677.473V93.2604L620.486 33.8137C619.864 33.1706 619.17 32.8032 618.335 32.6535L618.301 32.6473L618.267 32.6404C617.404 32.4634 616.595 32.5315 615.772 32.8534C614.997 33.2192 614.341 33.7684 613.788 34.5595C613.317 35.2457 613.079 36.0029 613.079 36.9138V106.732H621.73V47.0979L678.732 106.619C679.152 107.061 679.581 107.34 680.025 107.509C680.66 107.736 681.229 107.83 681.744 107.83C682.376 107.83 682.94 107.715 683.463 107.498C684.03 107.261 684.465 106.964 684.807 106.622C685.201 106.229 685.51 105.77 685.738 105.223L685.756 105.178Z" fill="white"/>
<path d="M285.385 98.0806H333.958V106.732H285.275C283.624 106.732 281.738 106.441 279.597 105.806C277.616 105.218 275.759 104.257 274.018 102.9C272.377 101.558 270.95 99.805 269.757 97.5865C268.701 95.5218 268.103 92.8663 268.103 89.5056V38.0118C268.103 37.3801 268.218 36.8157 268.436 36.293C268.672 35.7269 268.975 35.2588 269.339 34.8656C269.726 34.4855 270.176 34.1861 270.71 33.9637C271.22 33.7511 271.801 33.6309 272.484 33.6309H333.958V42.2828H276.755V89.5056C276.755 91.8592 277.387 94.1016 279.06 95.7751C280.743 97.4581 283.013 98.0806 285.385 98.0806Z" fill="white"/>
<path d="M378.831 42.2828H347.32V33.6309H418.939V42.2828H387.483V106.732H378.831V42.2828Z" fill="white"/>
<path d="M500.627 98.0806H452.053C449.681 98.0806 447.412 97.4581 445.729 95.7751C444.055 94.1016 443.423 91.8592 443.423 89.5056V42.2828H500.627V33.6309H439.152C438.47 33.6309 437.889 33.7511 437.379 33.9637C436.845 34.1861 436.395 34.4855 436.008 34.8656C435.643 35.2588 435.34 35.7269 435.104 36.293C434.887 36.8157 434.772 37.3801 434.772 38.0118V89.5056C434.772 92.8664 435.369 95.5219 436.426 97.5867C437.619 99.8051 439.046 101.558 440.686 102.9C442.428 104.257 444.285 105.218 446.266 105.806C448.407 106.441 450.293 106.732 451.944 106.732H500.627V98.0806Z" fill="white"/>
<path d="M589.139 71.1992L589.133 71.2078C587.934 72.9252 586.554 74.3814 584.994 75.5913C583.365 76.8551 581.664 77.894 579.892 78.7154C578.143 79.5064 576.374 80.0778 574.582 80.4362L574.572 80.4382C572.754 80.8086 571.077 80.9855 569.534 80.9855H561.98L591.789 106.732H578.322L548.567 80.9855H540.065V72.3337H569.648L569.763 72.3243C571.797 72.1583 573.705 71.738 575.464 71.0347L575.48 71.0281L575.496 71.0214C577.282 70.2811 578.862 69.2781 580.198 67.9929C581.592 66.6875 582.656 65.1273 583.388 63.3433L583.398 63.3203C584.138 61.4694 584.477 59.4404 584.477 57.2808V48.2776C584.477 47.3528 584.371 46.2454 583.877 45.2595C583.532 44.4846 582.973 43.7128 582.107 43.1775C581.441 42.716 580.684 42.437 579.878 42.3534C579.463 42.3078 579.052 42.2828 578.647 42.2828H528.734V106.732H520.082V38.0118C520.082 37.3801 520.197 36.8157 520.415 36.293C520.651 35.7269 520.954 35.2588 521.319 34.8656C521.706 34.4855 522.156 34.1861 522.689 33.9637C523.2 33.7511 523.781 33.6309 524.463 33.6309H578.647C581.495 33.6309 583.703 34.1552 585.394 35.057L585.41 35.0656L585.427 35.0741C587.299 36.0416 588.74 37.2343 589.816 38.6298L589.836 38.6556L589.856 38.681C591.026 40.1273 591.832 41.6633 592.307 43.2985L592.314 43.321L592.321 43.3434C592.876 45.1392 593.129 46.742 593.129 48.1678V57.2808C593.129 60.3108 592.754 62.9284 592.05 65.1667C591.323 67.4826 590.346 69.4846 589.139 71.1992Z" fill="white"/>
<path fill-rule="evenodd" clip-rule="evenodd" d="M715.55 87.4085V106.732H706.898V70.1817C706.898 64.7638 707.829 59.8412 709.654 55.3805C711.495 50.8797 714.034 47.0485 717.264 43.8525C720.501 40.6493 724.337 38.1421 728.803 36.3353C733.231 34.5437 738.103 33.6309 743.449 33.6309H775.619C776.251 33.6309 776.815 33.7459 777.338 33.9637C777.885 34.1916 778.343 34.5002 778.737 34.8938C779.131 35.2873 779.439 35.7462 779.667 36.293C779.885 36.8157 780 37.3801 780 38.0118V106.732H771.348V87.4085H715.55ZM715.55 70.1817V78.7567H771.348V42.2828H743.449C742.844 42.2828 741.773 42.3727 740.394 42.5138C738.782 42.644 736.983 42.997 735.019 43.5359L735.006 43.5397C732.956 44.1135 730.837 44.9794 728.652 46.111C726.284 47.3371 724.143 49.0108 722.223 51.094C720.232 53.2543 718.638 55.903 717.4 58.9759L717.393 58.9936C716.13 62.1934 715.55 65.9504 715.55 70.1817Z" fill="white"/>
<path d="M288.086 74.5625H318.762L327.524 65.8009H288.086V74.5625Z" fill="white"/>
<path d="M485.44 74.5625H454.754V65.8009H494.201L485.44 74.5625Z" fill="white"/>
</svg>
