<svg viewBox="0 0 160 160" fill="none" xmlns="http://www.w3.org/2000/svg">
  <!-- Background grid lines -->
  <line x1="30" y1="40" x2="130" y2="40" stroke="white" stroke-width="0.3" opacity="0.06"/>
  <line x1="30" y1="60" x2="130" y2="60" stroke="white" stroke-width="0.3" opacity="0.06"/>
  <line x1="30" y1="80" x2="130" y2="80" stroke="white" stroke-width="0.3" opacity="0.06"/>
  <line x1="30" y1="100" x2="130" y2="100" stroke="white" stroke-width="0.3" opacity="0.06"/>
  <line x1="30" y1="120" x2="130" y2="120" stroke="white" stroke-width="0.3" opacity="0.06"/>
  <line x1="50" y1="30" x2="50" y2="130" stroke="white" stroke-width="0.3" opacity="0.06"/>
  <line x1="70" y1="30" x2="70" y2="130" stroke="white" stroke-width="0.3" opacity="0.06"/>
  <line x1="90" y1="30" x2="90" y2="130" stroke="white" stroke-width="0.3" opacity="0.06"/>
  <line x1="110" y1="30" x2="110" y2="130" stroke="white" stroke-width="0.3" opacity="0.06"/>
  <!-- Trailing path (fully drawn, stroke-dashoffset: 0) -->
  <polyline points="30,130 30,95 65,95 65,70 100,70 100,50 130,50 130,35" stroke="white" stroke-width="1" fill="none" opacity="0.2"/>
  <!-- Main path (fully drawn, no dash animation) -->
  <polyline points="30,130 30,90 65,90 65,65 100,65 100,42 130,42 130,28" stroke="white" stroke-width="1.5" fill="none"/>
  <!-- Dot at tip (static, no pulse) -->
  <circle cx="130" cy="28" r="4" fill="white"/>
  <!-- Secondary dot on trailing path (static, no pulse) -->
  <circle cx="130" cy="35" r="3" fill="white" opacity="0.3"/>
</svg>
